# xmcd
#
# Track frame offsets: 
#        150
#        11868
#        23742
#        35975
#        47746
#        59757
#        72784
#        84831
#        97385
#        110772
#        124665
#        136153
#        146450
#        157467
#        169637
#        182564
#        193567
#        204722
#        215439
#        226968
#        239957
#        252153
#        261570
#        272441
#        283406
#        294908
#        306141
#        316672
#        327106
#        337504
#
# Disc length: 4610 seconds
#
# Revision: 0
# Processed by: cddbd v1.5.2PL0 Copyright (c) Steve Scherf et al.
# Submitted via: ExactAudioCopy v0.99pb5
#
DISCID=cc12001e
DTITLE=Wynonie Harris - Wynonie 'Mr. Blues' Harris In The 50's. Rock M
DTITLE=r. Blues!
DYEAR=2007
DGENRE=R&B
TTITLE0=Sittin' On It All The Time
TTITLE1=Rock Mr. Blues
TTITLE2=I Like My Baby's Pudding
TTITLE3=Triflin' Woman
TTITLE4=Good Morning Judge
TTITLE5=A Love Untrue
TTITLE6=Bloodshot Eyes
TTITLE7=Confessin' The Blues
TTITLE8=Mr. Blues Is Coming To Town
TTITLE9=The Deacon Don't Like It
TTITLE10=Please Louise
TTITLE11=Mama, Your Daughter Done Lied On Me
TTITLE12=I Get A Thrill
TTITLE13=Christina
TTITLE14=Keep A-Talkin'
TTITLE15=Quiet Whiskey
TTITLE16=My Playful Baby's Gone (with Todd Rhodes Orchestra)
TTITLE17=Man's Best Friend
TTITLE18=Fishtail Blues
TTITLE19=Keep On Churnin' (Til The Butter Comes) (with Todd Rhodes Orc
TTITLE19=hestra)
TTITLE20=Drinking Blues (with Lucky Millinder Orchestra)
TTITLE21=Mr. Dollar
TTITLE22=Lovin' Machine (with Todd Rhodes Orchestra)
TTITLE23=Wasn't That Good?
TTITLE24=Just Like Two Drops Of Water
TTITLE25=Down Boy Down
TTITLE26=Git With The Grits
TTITLE27=I Don't Know Where To Go
TTITLE28=Tell A Whale Of A Tale
TTITLE29=Destination Love
EXTD=
EXTT0=
EXTT1=
EXTT2=
EXTT3=
EXTT4=
EXTT5=
EXTT6=
EXTT7=
EXTT8=
EXTT9=
EXTT10=
EXTT11=
EXTT12=
EXTT13=
EXTT14=
EXTT15=
EXTT16=
EXTT17=
EXTT18=
EXTT19=
EXTT20=
EXTT21=
EXTT22=
EXTT23=
EXTT24=
EXTT25=
EXTT26=
EXTT27=
EXTT28=
EXTT29=
PLAYORDER=
